<svg xmlns="http://www.w3.org/2000/svg" width="1200" height="630" viewBox="0 0 1200 630" role="img" aria-label="Sample ocean image">
  <defs>
    <linearGradient id="sky" x1="0" y1="0" x2="0" y2="1">
      <stop offset="0%" stop-color="#60a5fa"/>
      <stop offset="55%" stop-color="#0ea5e9"/>
      <stop offset="100%" stop-color="#0c4a6e"/>
    </linearGradient>
    <linearGradient id="wave" x1="0" y1="0" x2="1" y2="0">
      <stop offset="0%" stop-color="#0f766e"/>
      <stop offset="100%" stop-color="#0891b2"/>
    </linearGradient>
  </defs>
  <rect width="1200" height="630" fill="url(#sky)"/>
  <circle cx="180" cy="130" r="64" fill="#fef08a" opacity="0.92"/>
  <path d="M0 360 C140 300 300 420 460 360 C620 300 800 420 980 360 C1080 330 1140 340 1200 360 V630 H0 Z" fill="url(#wave)" opacity="0.85"/>
  <path d="M0 420 C180 360 340 480 520 420 C700 360 860 480 1040 420 C1120 396 1160 398 1200 410 V630 H0 Z" fill="#0369a1" opacity="0.75"/>
  <text x="80" y="102" fill="#f8fafc" font-size="54" font-family="IBM Plex Sans, Arial, sans-serif" font-weight="700">
    Markdown Image Preview
  </text>
  <text x="80" y="152" fill="#e0f2fe" font-size="28" font-family="IBM Plex Sans, Arial, sans-serif">
    Offline-safe asset for WYSIWYG rendering checks
  </text>
</svg>
